# xmcd CD database file
#
# Track frame offsets:
#	150
#	14817
#	32175
#	59132
#	84000
#	89247
#	110075
#	137720
#	155642
#	160802
#	178725
#
# Disc length: 2522 seconds
#
# Revision: 2
# Processed by: cddbd v1.5PL3 Copyright (c) Steve Scherf et al.
# Submitted via: CDex 1.51
#
DISCID=9d09d80b
DTITLE=EXILE - The other side of EX Vol.1
DYEAR=2003
DGENRE=Jazz
TTITLE0=BAD BOY ROOM
TTITLE1=Follow Me
TTITLE2=Together
TTITLE3=Style
TTITLE4=JAIL LOCK BREAK
TTITLE5=Cross〜never say die〜
TTITLE6=Kiss you
TTITLE7=Fly Away
TTITLE8=HALF TERM BREAK
TTITLE9=LET ME LUV U DOWN
TTITLE10=BRING THE BEAT BACK Pt.2
EXTD=YEAR: 2003
EXTT0=
EXTT1=
EXTT2=
EXTT3=
EXTT4=
EXTT5=
EXTT6=
EXTT7=
EXTT8=
EXTT9=
EXTT10=
PLAYORDER=
